HIERARCHY
ROOT pelvis
{
  OFFSET 0 100 0
  CHANNELS 6 Xposition Yposition Zposition Zrotation Xrotation Yrotation
  JOINT pelvis_right_femur
  {
    OFFSET -10.78128 -3.44521 -0.5502486
    CHANNELS 3 Zrotation Xrotation Yrotation
    JOINT right_femur_tibia
    {
      OFFSET -0.8047443 -44.0398 -0.1307829
      CHANNELS 3 Zrotation Xrotation Yrotation
      JOINT right_tibia_foot
      {
        OFFSET 3.006224 -47.83518 -5
        CHANNELS 3 Zrotation Xrotation Yrotation
        End Site
        {
          OFFSET 0 -5 15
        }
      }
    }
  }
  JOINT pelvis_left_femur
  {
    OFFSET 10.78128 -3.44521 -0.5502486
    CHANNELS 3 Zrotation Xrotation Yrotation
    JOINT left_femur_tibia
    {
      OFFSET 0.8047443 -44.0398 -0.1307829
      CHANNELS 3 Zrotation Xrotation Yrotation
      JOINT left_tibia_foot
      {
        OFFSET -4.370144 -48.10324 -4.275266
        CHANNELS 3 Zrotation Xrotation Yrotation
        End Site
        {
          OFFSET 0 -5 15
        }
      }
    }
  }
  JOINT pelvis_spine1
  {
    OFFSET 0 6.468898 -3.129235
    CHANNELS 3 Zrotation Xrotation Yrotation
    JOINT spine1
    {
      OFFSET 0 23.15396 4.99043
      CHANNELS 3 Zrotation Xrotation Yrotation
      JOINT spine2
      {
        OFFSET 0 20.79997 -5.064912
        CHANNELS 3 Zrotation Xrotation Yrotation
        JOINT neck
        {
          OFFSET 0 14.38658 9.616178
          CHANNELS 3 Zrotation Xrotation Yrotation
          End Site
          {
            OFFSET 0 20 0
          }
        }
      }
      JOINT right_manubrium
      {
        OFFSET -5.722621 16.35077 3.967754
        CHANNELS 3 Zrotation Xrotation Yrotation
        JOINT right_clavicle
        {
          OFFSET -13.16364 1.694482 -4.693211
          CHANNELS 3 Zrotation Xrotation Yrotation
          JOINT right_humerus
          {
            OFFSET -28.5034 -0.3100689 -2.792744
            CHANNELS 3 Zrotation Xrotation Yrotation
            JOINT right_radius
            {
              OFFSET -25.15693 0.02248979 -1.271978
              CHANNELS 3 Zrotation Xrotation Yrotation
              End Site
              {
                OFFSET -15 0 0
              }
            }
          }
        }
      }
      JOINT left_manubrium
      {
        OFFSET 5.722621 16.35077 3.967754
        CHANNELS 3 Zrotation Xrotation Yrotation
        JOINT left_clavicle
        {
          OFFSET 13.16364 1.694482 -4.693211
          CHANNELS 3 Zrotation Xrotation Yrotation
          JOINT left_humerus
          {
            OFFSET 29.39168 -1.063119 -2.237045
            CHANNELS 3 Zrotation Xrotation Yrotation
            JOINT left_radius
            {
              OFFSET 24.59957 -0.9528479 0.9047498
              CHANNELS 3 Zrotation Xrotation Yrotation
              End Site
              {
                OFFSET 15 -0 -0
              }
            }
          }
        }
      }
    }
  }
}
MOTION
Frames: 9
Frame Time: 0.0416666666667
561.6383 108.1821 3041.692 2.69109 -7.428474 5.419411 -0.7462154 5.205234 2.96817 -0 50.69553 -0 -2.064802 8.701753 -2.845808 -5.499255 -7.127152 -8.638724 -0 19.1825 -0 -1.091962 -11.12905 18.97121 -0.03637183 0.2142462 6.236958 -1.136974 10.32268 -3.33955 2.82269 22.43189 2.751807 -0.0461953 -17.6659 6.696056 -3.617085 -23.46029 9.335084 88.9515 14.99622 -9.091028 -0 0 23.8057 -20.01755 9.699974 12.59756 3.660238 -15.46899 -4.093446 -94.34713 23.9697 27.0338 0 0 -9.434285 -2.899106 7.628139 17.89347
562.9805 109.2224 3047.423 2.248917 -7.447397 6.486818 -0.09523387 -2.906885 2.300169 -0 50.83771 -0 -2.465189 8.501614 -3.67009 -5.402379 -1.777483 -8.740343 -0 16.98842 -0 -1.206738 -12.85469 17.81354 -0.2084075 0.4761028 5.673152 -1.072376 10.49652 -3.744402 2.989409 22.93437 2.77848 0.004966764 -17.46845 6.887886 -3.386851 -22.2835 9.291744 89.99254 15.45858 -10.72611 -0 0 21.15086 -19.3255 9.448709 11.48378 3.528198 -16.21141 -4.543614 -92.73073 24.71035 24.12975 0 0 -10.86716 -2.229609 8.162631 17.16811
564.1952 109.6336 3052.828 1.864954 -7.447038 7.500622 0.2515862 -10.33122 1.540233 -0 45.53432 -0 -2.80784 6.084051 -4.631992 -5.080593 3.323871 -9.012059 -0 14.3364 -0 -2.173874 -15.08664 16.58326 -0.3275999 0.639068 5.081781 -0.9594755 10.61782 -4.209357 3.128173 23.341 2.83616 0.08142824 -17.35667 7.066361 -3.212595 -21.10132 9.21821 91.09133 15.9458 -12.50972 -0 0 18.40585 -18.64839 9.183929 10.42078 3.464689 -17.12223 -4.972127 -90.92143 25.21683 21.0182 0 0 -12.76841 -1.418248 8.726026 16.29124
565.29 109.2677 3058.171 1.782389 -7.217452 8.38513 0.1035264 -16.11594 0.6665254 -0 36.23976 -0 -2.7905 2.906087 -5.590075 -4.864658 7.946999 -9.270655 -0 12.08188 -0 -3.520878 -17.53314 15.3857 -0.4179644 0.6855037 4.48714 -0.8016745 10.63122 -4.695423 3.231155 23.64978 2.943353 0.1988189 -17.33041 7.231963 -3.092068 -19.91861 9.109452 92.16136 16.47174 -14.35265 -0 0 15.65587 -18.03729 8.859476 9.466985 3.514865 -18.15291 -5.322834 -89.00373 25.47416 17.75183 0 0 -15.06746 -0.488298 9.251143 15.27107
566.287 108.3076 3063.612 1.818246 -6.466697 9.107632 -0.100422 -20.54926 -0.2200119 -0 26.25679 -0 -2.66285 0.5508534 -6.097385 -4.874696 11.79187 -9.425657 -0 10.91155 -0 -4.537921 -19.70462 14.40699 -0.5226185 0.6172559 3.889873 -0.5904446 10.48241 -5.178158 3.292556 23.87733 3.116748 0.3643883 -17.37963 7.392798 -3.000764 -18.70928 8.966156 93.1247 17.04617 -16.19385 -0 0 12.93893 -17.52068 8.443046 8.656744 3.71773 -19.24147 -5.545605 -87.0438 25.52091 14.32034 0 0 -17.66096 0.5247076 9.664868 14.11662
567.2209 107.0596 3069.211 1.707807 -5.226228 9.687182 0.09276538 -24.29496 -0.7507088 -0 18.25846 -0 -2.578531 -0.5272538 -6.107201 -5.014724 14.71195 -9.509826 -0 11.12753 -0 -4.837869 -21.18651 13.75346 -0.6689111 0.4367331 3.313087 -0.3159614 10.19249 -5.63933 3.302166 24.0283 3.348386 0.5589763 -17.53115 7.544689 -2.940388 -17.56738 8.821431 93.92734 17.61817 -17.91734 -0 0 10.38942 -17.15658 7.973624 8.06415 4.061456 -20.31856 -5.624718 -85.20776 25.37457 10.95355 0 0 -20.32721 1.570985 9.943812 12.86595
568.1228 105.7918 3075.031 1.360692 -3.774792 10.18719 0.8137689 -27.56717 -0.6195481 -0 13.00481 -0 -2.448146 -0.6593001 -5.913521 -5.125767 16.83701 -9.53867 -0 12.85407 -0 -4.677394 -21.78401 13.32073 -0.823837 0.1532481 2.823035 -0.002262794 9.904403 -6.061309 3.257415 24.09255 3.598614 0.7468899 -17.83466 7.66554 -2.958296 -16.70701 8.738868 94.60284 18.07457 -19.40553 -0 0 8.196137 -17.01176 7.546524 7.750962 4.45387 -21.35666 -5.623192 -83.7185 25.01528 8.136337 0 0 -22.834 2.603992 10.15529 11.6049
569.0179 104.7254 3081.183 0.8169297 -2.445509 10.66197 2.006176 -29.90646 0.2356355 -0 10.28916 -0 -2.222753 -0.3029676 -5.762001 -5.071525 18.32827 -9.515962 -0 16.33645 -0 -4.720799 -21.32755 12.85065 -0.9131581 -0.1907452 2.495061 0.2757402 9.761258 -6.403657 3.181864 24.07318 3.8115 0.8958884 -18.2547 7.737262 -3.09342 -16.26879 8.746594 95.21037 18.33537 -20.57102 -0 0 6.529969 -17.07359 7.231103 7.68197 4.776546 -22.31819 -5.630643 -82.71025 24.46616 6.273512 0 0 -25.00124 3.546512 10.38724 10.4797
569.9208 104.0626 3087.764 0.1944192 -1.604812 11.10169 3.48269 -30.30531 1.687291 -0 10.04669 -0 -2.013822 -0.1096918 -5.785689 -4.748014 19.1334 -9.483371 -0 21.91146 -0 -5.588972 -19.50061 12.1396 -0.8940407 -0.5094845 2.369516 0.4312904 9.809506 -6.611499 3.119058 24.00522 3.929936 0.9797259 -18.64006 7.756403 -3.31509 -16.23112 8.813105 95.73028 18.41048 -21.31037 -0 0 5.547244 -17.25317 7.068199 7.749817 4.941954 -23.08163 -5.695079 -82.20725 23.85871 5.501815 0 0 -26.56298 4.260055 10.67096 9.678517
